<svg xmlns="http://www.w3.org/2000/svg" version="1.1" xmlns:xlink="http://www.w3.org/1999/xlink" xmlns:svgjs="http://svgjs.dev/svgjs" width="1440" height="560" preserveAspectRatio="none" viewBox="0 0 1440 560"><g mask="url(&quot;#SvgjsMask1076&quot;)" fill="none"><rect width="1440" height="560" x="0" y="0" fill="rgba(0, 58, 100, 1)"></rect><circle r="75.33258535034234" cx="1207.4" cy="186.49" fill="rgba(169, 206, 232, 1)"></circle><circle r="46.666666666666664" cx="1099.48" cy="291.86" fill="rgba(169, 206, 232, 1)"></circle><rect width="282.36" height="282.36" clip-path="url(&quot;#SvgjsClipPath1077&quot;)" x="16.95" y="108.52" fill="url(&quot;#SvgjsPattern1078&quot;)" transform="rotate(202.84, 158.13, 249.7)"></rect><rect width="208" height="208" clip-path="url(&quot;#SvgjsClipPath1079&quot;)" x="754.44" y="368.6" fill="url(&quot;#SvgjsPattern1080&quot;)" transform="rotate(157.57, 858.44, 472.6)"></rect><path d="M724.16 101.19a5.6 5.6 0 1 0 8.71 7.04 5.6 5.6 0 1 0-8.71-7.04zM736.6 111.25a5.6 5.6 0 1 0 8.72 7.04 5.6 5.6 0 1 0-8.72-7.04zM749.05 121.3a5.6 5.6 0 1 0 8.71 7.04 5.6 5.6 0 1 0-8.71-7.04zM761.49 131.36a5.6 5.6 0 1 0 8.72 7.04 5.6 5.6 0 1 0-8.72-7.04zM689.21 93.53a5.6 5.6 0 1 0 8.71 7.03 5.6 5.6 0 1 0-8.71-7.03zM701.66 103.58a5.6 5.6 0 1 0 8.71 7.04 5.6 5.6 0 1 0-8.71-7.04zM714.1 113.64a5.6 5.6 0 1 0 8.71 7.04 5.6 5.6 0 1 0-8.71-7.04zM726.55 123.69a5.6 5.6 0 1 0 8.71 7.04 5.6 5.6 0 1 0-8.71-7.04z" fill="rgba(169, 206, 232, 1)"></path><rect width="276" height="276" clip-path="url(&quot;#SvgjsClipPath1081&quot;)" x="639.52" y="-24.99" fill="url(&quot;#SvgjsPattern1082&quot;)" transform="rotate(126.26, 777.52, 113.01)"></rect><path d="M162.78 142.26a5.6 5.6 0 1 0-0.23 11.19 5.6 5.6 0 1 0 0.23-11.19zM162.44 158.25a5.6 5.6 0 1 0-0.23 11.2 5.6 5.6 0 1 0 0.23-11.2zM162.1 174.25a5.6 5.6 0 1 0-0.23 11.2 5.6 5.6 0 1 0 0.23-11.2zM161.76 190.25a5.6 5.6 0 1 0-0.24 11.19 5.6 5.6 0 1 0 0.24-11.19zM147.47 109.92a5.6 5.6 0 1 0-0.24 11.2 5.6 5.6 0 1 0 0.24-11.2zM147.13 125.92a5.6 5.6 0 1 0-0.24 11.2 5.6 5.6 0 1 0 0.24-11.2zM146.79 141.92a5.6 5.6 0 1 0-0.24 11.19 5.6 5.6 0 1 0 0.24-11.19zM146.45 157.91a5.6 5.6 0 1 0-0.24 11.2 5.6 5.6 0 1 0 0.24-11.2zM132.15 77.59a5.6 5.6 0 1 0-0.23 11.2 5.6 5.6 0 1 0 0.23-11.2zM131.81 93.59a5.6 5.6 0 1 0-0.23 11.19 5.6 5.6 0 1 0 0.23-11.19zM131.47 109.58a5.6 5.6 0 1 0-0.23 11.2 5.6 5.6 0 1 0 0.23-11.2zM131.13 125.58a5.6 5.6 0 1 0-0.24 11.2 5.6 5.6 0 1 0 0.24-11.2z" stroke="rgba(236, 155, 0, 1)" stroke-width="1.52" stroke-dasharray="3, 3"></path><path d="M1367.53 321.25L1377.55 313.27 1387.53 321.29 1397.55 313.31 1407.53 321.33 1417.55 313.35 1427.53 321.37M1367.52 329.25L1377.53 321.27 1387.52 329.29 1397.53 321.31 1407.52 329.33 1417.53 321.35 1427.52 329.37" stroke="rgba(236, 155, 0, 1)" stroke-width="2.33" stroke-dasharray="4, 4"></path><path d="M1549.52 471.98 L1572.05 415.61L1583.0066721185292 466.0166721185293z" stroke="rgba(236, 155, 0, 1)" stroke-width="1" stroke-dasharray="3, 2"></path><path d="M474.31 303.64L467.63 314.57 455.5 310.44 448.82 321.37 436.69 317.24 430.01 328.17 417.89 324.05" stroke="rgba(225, 236, 240, 1)" stroke-width="1.69" stroke-dasharray="3, 3"></path><rect width="139.2" height="139.2" clip-path="url(&quot;#SvgjsClipPath1083&quot;)" x="609.99" y="458.18" fill="url(&quot;#SvgjsPattern1084&quot;)" transform="rotate(194.36, 679.59, 527.78)"></rect><path d="M1248.77 73.1L1243.96 61.23 1254.49 53.93 1249.68 42.06 1260.2 34.77 1255.4 22.9 1265.92 15.6" stroke="rgba(169, 206, 232, 1)" stroke-width="2.38"></path></g><defs><mask id="SvgjsMask1076"><rect width="1440" height="560" fill="#ffffff"></rect></mask><pattern x="0" y="0" width="10.86" height="10.86" patternUnits="userSpaceOnUse" id="SvgjsPattern1078"><path d="M5.43 1L5.43 9.86M1 5.43L9.86 5.43" stroke="rgba(169, 206, 232, 1)" fill="none" stroke-width="3.01"></path></pattern><clipPath id="SvgjsClipPath1077"><circle r="70.59" cx="158.13" cy="249.7"></circle></clipPath><pattern x="0" y="0" width="208" height="6.5" patternUnits="userSpaceOnUse" id="SvgjsPattern1080"><rect width="208" height="3.25" x="0" y="0" fill="rgba(169, 206, 232, 1)"></rect><rect width="208" height="3.25" x="0" y="3.25" fill="rgba(0, 0, 0, 0)"></rect></pattern><clipPath id="SvgjsClipPath1079"><circle r="52" cx="858.44" cy="472.6"></circle></clipPath><pattern x="0" y="0" width="6" height="6" patternUnits="userSpaceOnUse" id="SvgjsPattern1082"><path d="M0 6L3 0L6 6" stroke="rgba(169, 206, 232, 1)" fill="none"></path></pattern><clipPath id="SvgjsClipPath1081"><circle r="69" cx="777.52" cy="113.01"></circle></clipPath><pattern x="0" y="0" width="13.92" height="13.92" patternUnits="userSpaceOnUse" id="SvgjsPattern1084"><path d="M0 13.92L6.96 0L13.92 13.92" stroke="rgba(236, 155, 0, 1)" fill="none"></path></pattern><clipPath id="SvgjsClipPath1083"><circle r="34.8" cx="679.59" cy="527.78"></circle></clipPath></defs></svg>